# xmcd
#
# Track frame offsets:
#	183
#	27055
#	78108
#	107245
#	167918
#	195920
#	223458
#
# Disc length: 3280 seconds
#
# Revision: 1
# Processed by: cddbd v1.4PL0 Copyright (c) Steve Scherf et al.
# Submitted via: audiograbber 1.81.03
#
DISCID=560cce07
DTITLE=Jethro Tull - Blues From Chicago
DYEAR=1900
DGENRE=
TTITLE0=My Sunday Feeling
TTITLE1=My God!
TTITLE2=To Cry You A Song
TTITLE3=With You There To Help Me
TTITLE4=Sossity
TTITLE5=Nothing Is Easy
TTITLE6=Dharma For One
EXTD=
EXTT0=
EXTT1=
EXTT2=
EXTT3=
EXTT4=
EXTT5=
EXTT6=
PLAYORDER=
